<mxfile host="app.diagrams.net" modified="2024-04-03T19:36:14.870Z" agent="Mozilla/5.0 (Windows NT 10.0; Win64; x64) AppleWebKit/537.36 (KHTML, like Gecko) Chrome/120.0.0.0 YaBrowser/24.1.0.0 Safari/537.36" etag="_2kpX61rJfN2yN2QTtj_" version="24.2.2" type="device">
  <diagram id="C5RBs43oDa-KdzZeNtuy" name="Page-1">
    <mxGraphModel dx="1386" dy="783" grid="1" gridSize="10" guides="1" tooltips="1" connect="1" arrows="1" fold="1" page="1" pageScale="1" pageWidth="827" pageHeight="1169" math="0" shadow="0">
      <root>
        <mxCell id="WIyWlLk6GJQsqaUBKTNV-0" />
        <mxCell id="WIyWlLk6GJQsqaUBKTNV-1" parent="WIyWlLk6GJQsqaUBKTNV-0" />
        <mxCell id="9_JL2TRR04dnJlUzTMs4-16" value="" style="edgeStyle=orthogonalEdgeStyle;rounded=0;orthogonalLoop=1;jettySize=auto;html=1;" edge="1" parent="WIyWlLk6GJQsqaUBKTNV-1" source="9_JL2TRR04dnJlUzTMs4-0" target="9_JL2TRR04dnJlUzTMs4-15">
          <mxGeometry relative="1" as="geometry" />
        </mxCell>
        <mxCell id="9_JL2TRR04dnJlUzTMs4-0" value="Начало" style="ellipse;whiteSpace=wrap;html=1;" vertex="1" parent="WIyWlLk6GJQsqaUBKTNV-1">
          <mxGeometry x="420" y="100" width="120" height="80" as="geometry" />
        </mxCell>
        <mxCell id="9_JL2TRR04dnJlUzTMs4-9" value="" style="edgeStyle=orthogonalEdgeStyle;rounded=0;orthogonalLoop=1;jettySize=auto;html=1;" edge="1" parent="WIyWlLk6GJQsqaUBKTNV-1" source="9_JL2TRR04dnJlUzTMs4-3">
          <mxGeometry relative="1" as="geometry">
            <mxPoint x="300" y="440" as="targetPoint" />
          </mxGeometry>
        </mxCell>
        <mxCell id="9_JL2TRR04dnJlUzTMs4-3" value="&lt;div&gt;Перебераем в цикле список пользователей&lt;/div&gt;&lt;div&gt;и если пользователь IsPremium= false&amp;nbsp;&lt;/div&gt;&lt;div&gt;то показываем рекламму&amp;nbsp;&lt;/div&gt;" style="shape=hexagon;perimeter=hexagonPerimeter2;whiteSpace=wrap;html=1;fixedSize=1;" vertex="1" parent="WIyWlLk6GJQsqaUBKTNV-1">
          <mxGeometry x="340" y="330" width="280" height="80" as="geometry" />
        </mxCell>
        <mxCell id="9_JL2TRR04dnJlUzTMs4-12" value="" style="edgeStyle=orthogonalEdgeStyle;rounded=0;orthogonalLoop=1;jettySize=auto;html=1;" edge="1" parent="WIyWlLk6GJQsqaUBKTNV-1" source="9_JL2TRR04dnJlUzTMs4-6" target="9_JL2TRR04dnJlUzTMs4-11">
          <mxGeometry relative="1" as="geometry" />
        </mxCell>
        <mxCell id="9_JL2TRR04dnJlUzTMs4-6" value="Выводим в консоли&lt;div&gt;Мы подобрали для Вас, {user.Name}, рекламу:&lt;br&gt;&lt;/div&gt;" style="rounded=0;whiteSpace=wrap;html=1;" vertex="1" parent="WIyWlLk6GJQsqaUBKTNV-1">
          <mxGeometry x="240" y="450" width="120" height="60" as="geometry" />
        </mxCell>
        <mxCell id="9_JL2TRR04dnJlUzTMs4-14" value="" style="edgeStyle=orthogonalEdgeStyle;rounded=0;orthogonalLoop=1;jettySize=auto;html=1;" edge="1" parent="WIyWlLk6GJQsqaUBKTNV-1" source="9_JL2TRR04dnJlUzTMs4-11" target="9_JL2TRR04dnJlUzTMs4-13">
          <mxGeometry relative="1" as="geometry" />
        </mxCell>
        <mxCell id="9_JL2TRR04dnJlUzTMs4-11" value="Показываем рекламу&lt;div&gt;выполняем метод&amp;nbsp;ShowAds&lt;/div&gt;" style="whiteSpace=wrap;html=1;rounded=0;" vertex="1" parent="WIyWlLk6GJQsqaUBKTNV-1">
          <mxGeometry x="240" y="590" width="120" height="60" as="geometry" />
        </mxCell>
        <mxCell id="9_JL2TRR04dnJlUzTMs4-13" value="Конец" style="ellipse;whiteSpace=wrap;html=1;" vertex="1" parent="WIyWlLk6GJQsqaUBKTNV-1">
          <mxGeometry x="240" y="700" width="120" height="80" as="geometry" />
        </mxCell>
        <mxCell id="9_JL2TRR04dnJlUzTMs4-17" value="" style="edgeStyle=orthogonalEdgeStyle;rounded=0;orthogonalLoop=1;jettySize=auto;html=1;" edge="1" parent="WIyWlLk6GJQsqaUBKTNV-1" source="9_JL2TRR04dnJlUzTMs4-15" target="9_JL2TRR04dnJlUzTMs4-3">
          <mxGeometry relative="1" as="geometry" />
        </mxCell>
        <mxCell id="9_JL2TRR04dnJlUzTMs4-15" value="Создаем список пользователей на основании класса User" style="rounded=0;whiteSpace=wrap;html=1;" vertex="1" parent="WIyWlLk6GJQsqaUBKTNV-1">
          <mxGeometry x="420" y="220" width="120" height="60" as="geometry" />
        </mxCell>
      </root>
    </mxGraphModel>
  </diagram>
</mxfile>
